<?xml version="1.0" encoding="UTF-8"?>
<svg width="353px" height="219px" viewBox="0 0 353 219" version="1.1" xmlns="http://www.w3.org/2000/svg" xmlns:xlink="http://www.w3.org/1999/xlink">
    <!-- Generator: Sketch 44.1 (41455) - http://www.bohemiancoding.com/sketch -->
    <title>Slice</title>
    <desc>Created with Sketch.</desc>
    <defs></defs>
    <g id="Page-1" stroke="none" stroke-width="1" fill="none" fill-rule="evenodd">
        <g id="logo2" transform="translate(23.000000, 35.000000)">
            <polyline id="path32" fill="#333333" fill-rule="nonzero" points="287.161162 99.3603833 12.4625108 99.4417884 12.4625108 97.3525619 287.161162 97.2711567 287.161162 99.3603833"></polyline>
            <path d="M26.3594544,69.6770949 C11.8551182,69.6770949 -5.68434189e-14,57.7657907 -5.68434189e-14,43.2768619 C-5.68434189e-14,28.4352177 11.8551182,16.8766288 26.3594544,16.8766288 C31.9914403,16.8766288 37.3224566,18.3689279 41.7803226,21.3535488 L41.7803226,17.4735595 L54.1967554,17.4735595 L54.1967554,68.4561093 L41.7803226,68.4561093 L41.7803226,65.2001749 C37.3224566,67.8592079 32.3087213,69.6770949 26.3594544,69.6770949 Z M12.1723698,43.2768619 C12.1723698,50.9554614 18.9757842,57.7657907 26.6767061,57.7657907 C34.9606594,57.7657907 41.7803226,50.9554614 41.7803226,43.2768619 C41.7803226,35.2726712 34.9606594,28.4352177 26.6767061,28.4352177 C18.9757842,28.4352177 12.1723698,35.2726712 12.1723698,43.2768619 Z M85.0059381,69.6770949 C70.4880488,69.6770949 58.350926,57.7657907 58.350926,43.2768619 C58.350926,28.4352177 70.4880488,16.8766288 85.0059381,16.8766288 C90.627094,16.8766288 95.6842432,18.3689279 100.120417,21.3535488 L100.120417,9.76744185e-06 L112.851377,9.76744185e-06 L112.851377,68.4561093 L100.120417,68.4561093 L100.120417,65.2001749 C95.6842432,67.8592079 90.627094,69.6770949 85.0059381,69.6770949 Z M70.4880488,43.2768619 C70.4880488,50.9554614 77.3050184,57.7657907 85.6024982,57.7657907 C93.2898931,57.7657907 100.120417,50.9554614 100.120417,43.2768619 C100.120417,35.2726712 93.2898931,28.4352177 85.6024982,28.4352177 C77.3050184,28.4352177 70.4880488,35.2726712 70.4880488,43.2768619 Z M131.490914,68.4561093 L119.052787,68.4561093 L119.052787,17.4735595 L131.490914,17.4735595 L131.490914,68.4561093 Z M131.490914,12.7524567 L119.052787,12.7524567 L119.052787,9.76744185e-06 L131.490914,9.76744185e-06 L131.490914,12.7524567 Z M178.317524,9.76744185e-06 L190.736649,9.76744185e-06 L190.736649,68.4561093 L178.317524,68.4561093 L178.317524,65.2001749 C174.168797,67.8592079 168.826923,69.6770949 163.186796,69.6770949 C148.652632,69.6770949 136.840897,57.7657907 136.840897,43.2768619 C136.840897,28.4352177 148.652632,16.8766288 163.186796,16.8766288 C168.826923,16.8766288 173.843382,18.3689279 178.317524,21.3535488 L178.317524,9.76744185e-06 Z M148.978018,43.2768619 C148.978018,50.9554614 155.784127,57.7657907 163.485078,57.7657907 C171.484308,57.7657907 178.317524,50.9554614 178.317524,43.2768619 C178.317524,35.2726712 171.484308,28.4352177 163.485078,28.4352177 C155.784127,28.4352177 148.978018,35.2726712 148.978018,43.2768619 Z M221.540447,69.6770949 C207.006251,69.6770949 194.885405,57.7657907 194.885405,43.2768619 C194.885405,28.4352177 207.006251,16.8766288 221.540447,16.8766288 C227.18057,16.8766288 232.197029,18.3689279 236.345785,21.3535488 L236.345785,17.4735595 L249.063189,17.4735595 L249.063189,68.4561093 L236.345785,68.4561093 L236.345785,65.2001749 C232.197029,67.8592079 227.18057,69.6770949 221.540447,69.6770949 Z M207.304529,43.2768619 C207.304529,50.9554614 214.137778,57.7657907 222.136978,57.7657907 C229.810819,57.7657907 236.345785,50.9554614 236.345785,43.2768619 C236.345785,35.2726712 229.810819,28.4352177 222.136978,28.4352177 C214.137778,28.4352177 207.304529,35.2726712 207.304529,43.2768619 Z M276.938431,69.6770949 C289.384666,69.6770949 299.770106,64.57612 299.770106,52.1221693 C299.770106,45.013373 294.753648,40.2922409 286.754421,38.2301679 C278.429802,36.1409414 267.800326,36.4665326 267.800326,31.1213749 C268.36978,27.5669767 271.6508,26.6715823 276.667259,26.6715823 C284.368207,26.6715823 284.666489,30.8229079 284.964768,33.4819116 L297.682175,33.4819116 C296.787335,23.6869614 288.815242,16.8766288 276.097835,16.8766288 C262.75676,16.8766288 255.028705,24.0125493 255.028705,33.2106014 C255.028705,38.5286349 257.686057,43.2768619 262.160203,45.6374279 C265.414116,47.1297237 269.861151,48.2964316 275.175888,49.191826 C280.816015,49.7616 285.886718,50.3585307 286.15786,54.23852 C286.15786,56.9246772 283.473397,60.1534842 277.562099,60.1534842 C268.966311,60.1534842 267.203795,55.4052247 267.203795,52.1221693 L253.86272,52.1221693 C254.161002,62.5140209 262.75676,69.6770949 276.938431,69.6770949 L276.938431,69.6770949 Z" id="path34" fill="#333333" fill-rule="nonzero"></path>
            <path d="M291.391243,1.19387116 C294.645185,1.19387116 297.356785,3.88002837 297.356785,7.40726977 C297.356785,10.6360767 294.645185,13.322234 291.391243,13.322234 C288.164466,13.322234 285.452867,10.6360767 285.452867,7.40726977 C285.452867,3.88002837 288.164466,1.19387116 291.391243,1.19387116 Z M291.391243,2.00786047 C288.462716,2.00786047 286.293459,4.42267814 286.293459,7.40726977 C286.293459,10.093427 288.462716,12.5082414 291.391243,12.5082414 C294.129979,12.5082414 296.516193,10.093427 296.516193,7.40726977 C296.516193,4.42267814 294.129979,2.00786047 291.391243,2.00786047 Z M292.747041,7.40726977 C293.045323,7.40726977 293.831701,7.6786093 293.831701,8.73678465 L293.831701,10.6360767 L292.747041,10.6360767 L292.747041,9.82208744 C292.747041,8.46544512 292.475899,7.92279535 291.662414,7.92279535 L290.333723,7.92279535 L290.333723,10.6360767 L289.249093,10.6360767 L289.249093,3.88002837 L291.391243,3.88002837 C292.747041,3.88002837 293.831701,4.72114186 293.831701,5.77931721 C293.831701,6.59330977 293.316495,7.40726977 292.747041,7.40726977 Z M290.333723,4.96532791 L290.333723,6.86462 L291.391243,6.86462 C291.960693,6.86462 292.747041,6.59330977 292.747041,6.05062744 C292.747041,5.50797767 292.231868,4.96532791 291.662414,4.96532791 L290.333723,4.96532791 L290.333723,4.96532791 Z" id="path36" fill="#333333"></path>
            <g id="g2040" transform="translate(58.592831, 119.862335)" fill-rule="nonzero" fill="#000000">
                <path d="M20.4638697,29.9650986 C18.1481515,32.4613214 15.0515009,33.7636828 11.6755697,33.7636828 C8.43793243,33.7636828 5.47957549,32.5698507 3.26418189,30.3449707 C0.16211551,27.224693 0.16211551,23.995886 0.16211551,17.0227465 C0.16211551,10.0224828 0.16211551,6.79367581 3.26418189,3.67339814 C5.47957549,1.47564233 8.39182451,0.254656744 11.6755697,0.254656744 C17.9637794,0.254656744 22.2155515,4.32458047 23.1863011,10.1038879 L19.6747988,10.1038879 C18.7501275,5.95255907 15.7917707,3.40208791 11.6755697,3.40208791 C9.50359067,3.40208791 7.42107495,4.29745302 5.98933601,5.76262465 C3.90684989,7.90613209 3.67634056,10.1038879 3.67634056,17.0227465 C3.67634056,23.9144809 3.90684989,26.1665177 5.98933601,28.3099926 C7.42107495,29.7751642 9.50359067,30.6162809 11.6755697,30.6162809 C14.0807512,30.6162809 16.3937468,29.6395107 17.9203943,27.7944702 C19.2599174,26.1665177 19.766985,24.3757549 19.766985,21.8252544 L19.766985,19.3290349 L11.6755697,19.3290349 L11.6755697,16.2087572 L23.2812098,16.2087572 L23.2812098,21.4453856 C23.2812098,25.2439958 22.4975548,27.7944702 20.4638697,29.9650986" id="path38"></path>
                <path d="M53.941295,3.67339814 L45.1529967,3.67339814 L45.1529967,15.7475093 L53.941295,15.7475093 C57.7727701,15.7475093 60.5033427,13.7668153 60.5033427,9.75114326 C60.5033427,5.73550047 57.7727701,3.67339814 53.941295,3.67339814 Z M60.5467256,33.4923726 L53.0572874,18.867787 L45.1529967,18.867787 L45.1529967,33.4923726 L41.6360489,33.4923726 L41.6360489,0.525996279 L54.2585466,0.525996279 C59.9962744,0.525996279 64.0175954,3.9989893 64.0175954,9.69689163 C64.0175954,14.4993995 61.1053178,17.6468014 56.8535466,18.5421991 L64.6656508,33.4923726 L60.5467256,33.4923726 L60.5467256,33.4923726 Z" id="path40"></path>
                <path d="M98.0861388,5.76262465 C96.6489826,4.29745302 94.5881616,3.40208791 92.4188753,3.40208791 C90.2224816,3.40208791 88.1616866,4.29745302 86.7245304,5.76262465 C84.636602,7.90613209 84.4196746,10.1038879 84.4196746,17.0227465 C84.4196746,23.9144809 84.636602,26.1122367 86.7245304,28.2557442 C88.1616866,29.7209158 90.2224816,30.6162809 92.4188753,30.6162809 C94.5881616,30.6162809 96.6489826,29.7209158 98.0861388,28.2557442 C100.17407,26.1122367 100.418102,23.9144809 100.418102,17.0227465 C100.418102,10.1038879 100.17407,7.90613209 98.0861388,5.76262465 Z M100.824846,30.3449707 C98.6013449,32.5698507 95.6999252,33.7636828 92.4188753,33.7636828 C89.1378514,33.7636828 86.2093275,32.5698507 83.9858232,30.3449707 C80.89459,27.224693 80.89459,23.995886 80.89459,17.0227465 C80.89459,10.0224828 80.89459,6.79367581 83.9858232,3.67339814 C86.2093275,1.47564233 89.1378514,0.254656744 92.4188753,0.254656744 C95.6999252,0.254656744 98.6013449,1.47564233 100.824846,3.67339814 C103.916082,6.79367581 103.916082,10.0224828 103.916082,17.0227465 C103.916082,23.995886 103.916082,27.224693 100.824846,30.3449707 L100.824846,30.3449707 Z" id="path42"></path>
                <path d="M133.391157,33.7636828 C126.720618,33.7636828 121.921087,29.1782628 121.921087,22.6121195 L121.921087,0.525996279 L125.419064,0.525996279 L125.419064,22.34078 C125.419064,27.3332223 128.564515,30.6162809 133.391157,30.6162809 C138.190689,30.6162809 141.390384,27.3332223 141.390384,22.34078 L141.390384,0.525996279 L144.888364,0.525996279 L144.888364,22.6121195 C144.888364,29.1782628 140.034586,33.7636828 133.391157,33.7636828" id="path44"></path>
                <path d="M176.044627,3.67339814 L167.638685,3.67339814 L167.638685,16.7785605 L176.044627,16.7785605 C180.166272,16.7785605 183.040552,14.5536512 183.040552,10.2124172 C183.040552,5.87115395 180.166272,3.67339814 176.044627,3.67339814 Z M176.370016,19.9259623 L167.638685,19.9259623 L167.638685,33.4923726 L164.113598,33.4923726 L164.113598,0.525996279 L176.370016,0.525996279 C182.389777,0.525996279 186.538529,4.29745302 186.538529,10.2124172 C186.538529,16.1273521 182.389777,19.9259623 176.370016,19.9259623 L176.370016,19.9259623 Z" id="path46"></path>
            </g>
        </g>
    </g>
</svg>