<?xml version="1.0" encoding="UTF-8"?>
<svg width="353px" height="133px" viewBox="0 0 353 133" version="1.1" xmlns="http://www.w3.org/2000/svg" xmlns:xlink="http://www.w3.org/1999/xlink">
    <!-- Generator: Sketch 45.1 (43504) - http://www.bohemiancoding.com/sketch -->
    <title>Slice</title>
    <desc>Created with Sketch.</desc>
    <defs></defs>
    <g id="Page-1" stroke="none" stroke-width="1" fill="none" fill-rule="evenodd">
        <g id="logo2" transform="translate(26.000000, 30.000000)" fill="#333333">
            <path d="M26.3594544,69.6770949 C11.8551182,69.6770949 -5.68434189e-14,57.7657907 -5.68434189e-14,43.2768619 C-5.68434189e-14,28.4352177 11.8551182,16.8766288 26.3594544,16.8766288 C31.9914403,16.8766288 37.3224566,18.3689279 41.7803226,21.3535488 L41.7803226,17.4735595 L54.1967554,17.4735595 L54.1967554,68.4561093 L41.7803226,68.4561093 L41.7803226,65.2001749 C37.3224566,67.8592079 32.3087213,69.6770949 26.3594544,69.6770949 Z M12.1723698,43.2768619 C12.1723698,50.9554614 18.9757842,57.7657907 26.6767061,57.7657907 C34.9606594,57.7657907 41.7803226,50.9554614 41.7803226,43.2768619 C41.7803226,35.2726712 34.9606594,28.4352177 26.6767061,28.4352177 C18.9757842,28.4352177 12.1723698,35.2726712 12.1723698,43.2768619 Z M85.0059381,69.6770949 C70.4880488,69.6770949 58.350926,57.7657907 58.350926,43.2768619 C58.350926,28.4352177 70.4880488,16.8766288 85.0059381,16.8766288 C90.627094,16.8766288 95.6842432,18.3689279 100.120417,21.3535488 L100.120417,9.76744185e-06 L112.851377,9.76744185e-06 L112.851377,68.4561093 L100.120417,68.4561093 L100.120417,65.2001749 C95.6842432,67.8592079 90.627094,69.6770949 85.0059381,69.6770949 Z M70.4880488,43.2768619 C70.4880488,50.9554614 77.3050184,57.7657907 85.6024982,57.7657907 C93.2898931,57.7657907 100.120417,50.9554614 100.120417,43.2768619 C100.120417,35.2726712 93.2898931,28.4352177 85.6024982,28.4352177 C77.3050184,28.4352177 70.4880488,35.2726712 70.4880488,43.2768619 Z M131.490914,68.4561093 L119.052787,68.4561093 L119.052787,17.4735595 L131.490914,17.4735595 L131.490914,68.4561093 Z M131.490914,12.7524567 L119.052787,12.7524567 L119.052787,9.76744185e-06 L131.490914,9.76744185e-06 L131.490914,12.7524567 Z M178.317524,9.76744185e-06 L190.736649,9.76744185e-06 L190.736649,68.4561093 L178.317524,68.4561093 L178.317524,65.2001749 C174.168797,67.8592079 168.826923,69.6770949 163.186796,69.6770949 C148.652632,69.6770949 136.840897,57.7657907 136.840897,43.2768619 C136.840897,28.4352177 148.652632,16.8766288 163.186796,16.8766288 C168.826923,16.8766288 173.843382,18.3689279 178.317524,21.3535488 L178.317524,9.76744185e-06 Z M148.978018,43.2768619 C148.978018,50.9554614 155.784127,57.7657907 163.485078,57.7657907 C171.484308,57.7657907 178.317524,50.9554614 178.317524,43.2768619 C178.317524,35.2726712 171.484308,28.4352177 163.485078,28.4352177 C155.784127,28.4352177 148.978018,35.2726712 148.978018,43.2768619 Z M221.540447,69.6770949 C207.006251,69.6770949 194.885405,57.7657907 194.885405,43.2768619 C194.885405,28.4352177 207.006251,16.8766288 221.540447,16.8766288 C227.18057,16.8766288 232.197029,18.3689279 236.345785,21.3535488 L236.345785,17.4735595 L249.063189,17.4735595 L249.063189,68.4561093 L236.345785,68.4561093 L236.345785,65.2001749 C232.197029,67.8592079 227.18057,69.6770949 221.540447,69.6770949 Z M207.304529,43.2768619 C207.304529,50.9554614 214.137778,57.7657907 222.136978,57.7657907 C229.810819,57.7657907 236.345785,50.9554614 236.345785,43.2768619 C236.345785,35.2726712 229.810819,28.4352177 222.136978,28.4352177 C214.137778,28.4352177 207.304529,35.2726712 207.304529,43.2768619 Z M276.938431,69.6770949 C289.384666,69.6770949 299.770106,64.57612 299.770106,52.1221693 C299.770106,45.013373 294.753648,40.2922409 286.754421,38.2301679 C278.429802,36.1409414 267.800326,36.4665326 267.800326,31.1213749 C268.36978,27.5669767 271.6508,26.6715823 276.667259,26.6715823 C284.368207,26.6715823 284.666489,30.8229079 284.964768,33.4819116 L297.682175,33.4819116 C296.787335,23.6869614 288.815242,16.8766288 276.097835,16.8766288 C262.75676,16.8766288 255.028705,24.0125493 255.028705,33.2106014 C255.028705,38.5286349 257.686057,43.2768619 262.160203,45.6374279 C265.414116,47.1297237 269.861151,48.2964316 275.175888,49.191826 C280.816015,49.7616 285.886718,50.3585307 286.15786,54.23852 C286.15786,56.9246772 283.473397,60.1534842 277.562099,60.1534842 C268.966311,60.1534842 267.203795,55.4052247 267.203795,52.1221693 L253.86272,52.1221693 C254.161002,62.5140209 262.75676,69.6770949 276.938431,69.6770949 L276.938431,69.6770949 Z" id="path34" fill-rule="nonzero"></path>
            <path d="M291.391243,1.19387116 C294.645185,1.19387116 297.356785,3.88002837 297.356785,7.40726977 C297.356785,10.6360767 294.645185,13.322234 291.391243,13.322234 C288.164466,13.322234 285.452867,10.6360767 285.452867,7.40726977 C285.452867,3.88002837 288.164466,1.19387116 291.391243,1.19387116 Z M291.391243,2.00786047 C288.462716,2.00786047 286.293459,4.42267814 286.293459,7.40726977 C286.293459,10.093427 288.462716,12.5082414 291.391243,12.5082414 C294.129979,12.5082414 296.516193,10.093427 296.516193,7.40726977 C296.516193,4.42267814 294.129979,2.00786047 291.391243,2.00786047 Z M292.747041,7.40726977 C293.045323,7.40726977 293.831701,7.6786093 293.831701,8.73678465 L293.831701,10.6360767 L292.747041,10.6360767 L292.747041,9.82208744 C292.747041,8.46544512 292.475899,7.92279535 291.662414,7.92279535 L290.333723,7.92279535 L290.333723,10.6360767 L289.249093,10.6360767 L289.249093,3.88002837 L291.391243,3.88002837 C292.747041,3.88002837 293.831701,4.72114186 293.831701,5.77931721 C293.831701,6.59330977 293.316495,7.40726977 292.747041,7.40726977 Z M290.333723,4.96532791 L290.333723,6.86462 L291.391243,6.86462 C291.960693,6.86462 292.747041,6.59330977 292.747041,6.05062744 C292.747041,5.50797767 292.231868,4.96532791 291.662414,4.96532791 L290.333723,4.96532791 L290.333723,4.96532791 Z" id="path36"></path>
        </g>
    </g>
</svg>